<!-- icon666.com - MILLIONS OF FREE VECTOR ICONS --><svg id="Capa_1" enable-background="new 0 0 510 510" viewBox="0 0 510 510" xmlns="http://www.w3.org/2000/svg"><g id="XMLID_606_"><path id="XMLID_608_" d="m0 387.413v9c0 23.71 19.29 43 43 43h48.736l25.314-10.029 25.313 10.029h87.321l25.316-10.028 25.314 10.029h87.321l25.313-10.029 25.314 10.029h43.238c26.743 0 48.5-21.757 48.5-48.5v-3.5h-510z"></path><path id="XMLID_610_" d="m510 203.426h-225.271v59.655h-30v-67.667h-31.396v67.667h-30v-67.667h-60.833c-.15 0-.299.005-.449.006v161.994h377.949z"></path><path id="XMLID_611_" d="m102.051 357.413v-158.463c-58.432 13.794-102.051 66.378-102.051 128.963v29.5z"></path><path id="XMLID_616_" d="m510 173.426v-47.681h-158.199c-6.696-26.647-13.379-35.881-18.034-40.536-19.496-19.496-51.217-19.496-70.713 0s-19.496 51.218 0 70.713c6.4 6.4 19.448 12.27 38.867 17.503h208.079zm-225.733-67.004c7.801-7.799 20.488-7.798 28.287 0 .187.188 3.64 3.818 8.17 19.323h-16.326v15c0 .709.005 1.453.008 2.181-11.782-3.516-18.441-6.669-20.138-8.217-7.8-7.799-7.8-20.489-.001-28.287z"></path></g></svg>